<?xml version="1.0" encoding="utf-8"?>
<svg viewBox="0 0 640 512" xmlns="http://www.w3.org/2000/svg" role="img" class="svg-inline--fa fa-siren-on fa-w-20" data-icon="siren-on" data-prefix="fal" aria-hidden="true" style="background: rgb(255, 255, 255); shape-rendering: crispedges;"><g class="ldl-scale" style="transform-origin: 50% 50%; transform: rotate(360deg) scale(-0.45, 0.45);"><g class="ldl-ani" style="transform-origin: 320px 256px;"><g class="ldl-layer"><g class="ldl-ani" style="opacity: 1; transform-origin: 320px 256px; animation: 0.943396s linear -0.943396s infinite alternate forwards running blink-9107952e-e354-4f5d-ab5f-bb359bd8b139;"><path d="M512,320h-1.88L486.88,134.07A80.13,80.13,0,0,0,407.5,64h-175a80.13,80.13,0,0,0-79.38,70.08L129.88,320H128a32,32,0,0,0-32,32v64a32,32,0,0,0,32,32H512a32,32,0,0,0,32-32V352A32,32,0,0,0,512,320ZM184.88,138A48.07,48.07,0,0,1,232.5,96h175A48.07,48.07,0,0,1,455.12,138l22.76,182H231.82l24.11-180.83a8,8,0,0,0-6.87-9l-15.86-2.13a8,8,0,0,0-9,6.87L199.54,320H162.12ZM512,416H128V352H512ZM80,160H16a16,16,0,0,0,0,32H80a16,16,0,0,0,0-32Zm544,0H560a16,16,0,0,0,0,32h64a16,16,0,0,0,0-32ZM40.84,30.3l64,32a16,16,0,0,0,14.32-28.63l-64-32A16,16,0,0,0,40.84,30.3ZM528,64a16.17,16.17,0,0,0,7.16-1.69l64-32A16,16,0,0,0,584.84,1.67l-64,32A16,16,0,0,0,528,64Z" fill="currentColor" style="fill: rgb(255, 4, 4);"></path></g></g></g></g><style id="blink-9107952e-e354-4f5d-ab5f-bb359bd8b139" data-anikit="">@keyframes blink-9107952e-e354-4f5d-ab5f-bb359bd8b139 {
  0% { opacity: 1; }
  49.75% { opacity: 1; }
  50.25% { opacity: 0; }
  99.5% { opacity: 0; }
  100% { opacity: 1; }
}</style><!-- [ldio] generated by https://loading.io/ --></svg>